<svg id="Layer_1" enable-background="new 0 0 512 512" height="32" viewBox="0 0 512 512" width="32" xmlns="http://www.w3.org/2000/svg"><g><g><g><g><g><g id="XMLID_629_"><g id="XMLID_630_"><g id="XMLID_631_"><g id="XMLID_632_"><g id="XMLID_636_"><g id="XMLID_637_"><g id="XMLID_638_"><g id="XMLID_639_"><g id="XMLID_640_"><g id="XMLID_995_"><g id="XMLID_996_"><g id="XMLID_1515_"><g id="XMLID_1516_"><g id="XMLID_2088_"><g id="XMLID_2120_"><circle cx="256" cy="256" fill="#da45c6" r="256"/></g></g></g></g></g></g></g></g></g></g></g></g></g></g></g></g></g></g></g><path d="m58.06 300.234 211.417 211.417c130.658-6.776 235.399-111.517 242.175-242.175l-50.315-50.315s-82.609-73.364-165.729-83.019l-58.469-60.284-42.188 3.174-15.908-13.677-70.296 51.37 54.029 52.936c-83.517 36.307-104.716 130.573-104.716 130.573z" fill="#a733c1"/><path d="m256 129.901c-157.283 0-235.331 126.099-235.331 126.099s78.048 126.099 235.331 126.099 235.332-126.099 235.332-126.099-78.049-126.099-235.332-126.099z" fill="#fff"/><path d="m491.33 256s-78.05 126.1-235.33 126.1v-252.2c157.28 0 235.33 126.1 235.33 126.1z" fill="#d1d1d1"/><g><g><path d="m286.387 314.271h30v94.327h42.755v30h-72.755z" fill="#0f3a39"/></g></g><g><g><ellipse cx="376.335" cy="423.598" fill="#f2bc11" rx="29.174" ry="29.174" transform="matrix(.924 -.383 .383 .924 -133.457 176.262)"/></g></g><g><g><path d="m237.137 200.185h-30v-94.327h-42.754v-30h72.754z" fill="#2c5e5d"/></g></g><circle cx="256" cy="256" fill="#94f5ff" r="75.579"/><path d="m331.58 256c0 41.74-33.84 75.58-75.58 75.58v-151.16c41.74 0 75.58 33.84 75.58 75.58z" fill="#4af4f4"/><g><path d="m256 349.06c-51.314 0-93.061-41.747-93.061-93.06s41.747-93.06 93.061-93.06 93.06 41.747 93.06 93.06-41.746 93.06-93.06 93.06zm0-156.12c-34.771 0-63.061 28.289-63.061 63.06s28.289 63.06 63.061 63.06 63.06-28.289 63.06-63.06-28.288-63.06-63.06-63.06z" fill="#0ed6e0"/></g><g><path d="m256 162.94v30c34.77 0 63.06 28.29 63.06 63.06s-28.29 63.06-63.06 63.06v30c51.31 0 93.06-41.75 93.06-93.06s-41.75-93.06-93.06-93.06z" fill="#0caec4"/></g><path d="m271.517 240.483v-15.391h-31.034v15.391h-15.391v31.034h15.391v15.391h31.034v-15.391h15.391v-31.034z" fill="#0ed6e0"/><path d="m286.91 240.48v31.04h-15.39v15.39h-15.52v-61.82h15.52v15.39z" fill="#0caec4"/><path d="m108.745 65.356h70.296v51.37h-70.296z" fill="#ffdc2e"/></g></svg>